<?xml version="1.0" encoding="UTF-8"?>
<svg version="1.1" xmlns="http://www.w3.org/2000/svg" width="500" height="500">
<path d="M0 0 C165 0 330 0 500 0 C500 165 500 330 500 500 C335 500 170 500 0 500 C0 335 0 170 0 0 Z " fill="#FDF8E9" transform="translate(0,0)"/>
<path d="M0 0 C7.07063197 0.23568773 7.07063197 0.23568773 10.44140625 3.0078125 C13.58066722 6.67907036 15.84649624 10.54027415 18.1875 14.75 C19.15304233 16.45216539 20.11920142 18.15398106 21.0859375 19.85546875 C21.57030273 20.71317871 22.05466797 21.57088867 22.55371094 22.45458984 C24.76592459 26.34799625 27.03720515 30.20573586 29.3125 34.0625 C29.92834961 35.11425415 29.92834961 35.11425415 30.55664062 36.18725586 C33.30505347 40.87128872 36.15532683 45.47913655 39.13671875 50.01953125 C40.1927534 52.44219898 39.90278968 53.56520358 39 56 C37.02 56.495 37.02 56.495 35 57 C32.16968396 53.60578219 29.82788715 50.19137862 27.64453125 46.3515625 C27.02126953 45.26230469 26.39800781 44.17304688 25.75585938 43.05078125 C25.11455078 41.92027344 24.47324219 40.78976563 23.8125 39.625 C18.33127121 30.00302945 12.69977047 20.49961745 7 11 C7 42.35 7 73.7 7 106 C11.95 97.75 16.9 89.5 22 81 C33.58333333 61.69444444 33.58333333 61.69444444 37 59 C40.4244229 59.06007759 42.87666947 59.23773999 45.75 61.1875 C47.45515107 63.65996905 48.7059104 66.2941763 50 69 C51.2224093 70.44244751 51.2224093 70.44244751 54.875 70.25 C57.36195054 70.19651719 58.75879953 70.12060023 61 69 C62.59312786 65.81374429 62.54169041 62.48933044 62 59 C59.52933008 55.29399512 57.87282963 55.11895101 53.77734375 53.94140625 C52 53 52 53 51.12890625 51.02734375 C51.08636719 50.35832031 51.04382813 49.68929687 51 49 C53 47 53 47 56.625 46.9375 C62.00051358 47.72368115 65.41206758 51.12574878 69 55 C70.84746521 58.69493043 70.3419438 62.95884604 70 67 C68.33282118 71.73829769 66.14637955 74.2011938 62 77 C57.29027365 78.56990878 51.72999309 79.31402157 47.1171875 77.09375 C43.59607534 74.33348117 41.70337584 71.06917562 40 67 C35.36730742 73.73039606 31.20070557 80.67146749 27.125 87.75 C25.89020008 89.87550983 24.65452938 92.00051402 23.41796875 94.125 C22.5350415 95.64287109 22.5350415 95.64287109 21.63427734 97.19140625 C20.82531006 98.58166016 20.82531006 98.58166016 20 100 C19.55736816 100.76183594 19.11473633 101.52367187 18.65869141 102.30859375 C17.59549385 104.128937 16.51993737 105.94105455 15.4375 107.75 C14.87933594 108.69359375 14.32117188 109.6371875 13.74609375 110.609375 C11.68249219 113.43470867 10.01395273 115.19078293 7 117 C4.31441759 117.21685217 1.69969983 117.07373311 -1 117 C-1.02332969 101.89275309 -1.04097952 86.78550757 -1.05181217 71.6782465 C-1.05697498 64.66415366 -1.06401739 57.650072 -1.07543945 50.63598633 C-1.08644688 43.87331932 -1.09227619 37.11066636 -1.09487724 30.34799004 C-1.09673203 27.7614772 -1.10035367 25.17496503 -1.10573006 22.58845711 C-1.11293651 18.97961145 -1.11399111 15.37081453 -1.11352539 11.76196289 C-1.11712067 10.6808725 -1.12071594 9.5997821 -1.12442017 8.4859314 C-1.1230455 7.50851486 -1.12167084 6.53109833 -1.12025452 5.52406311 C-1.12117631 4.66956101 -1.1220981 3.81505892 -1.12304783 2.93466282 C-1 1 -1 1 0 0 Z " fill="#6E6064" transform="translate(368,189)"/>
<path d="M0 0 C5.61 0 11.22 0 17 0 C16.34 1.32 15.68 2.64 15 4 C14.7047806 6.77394833 14.49287769 9.4700511 14.375 12.25 C14.31699219 13.36761719 14.31699219 13.36761719 14.2578125 14.5078125 C14.16394892 16.3381524 14.08090282 18.16904143 14 20 C16.97 20 19.94 20 23 20 C22.88581333 17.41577541 22.75907638 14.83320487 22.625 12.25 C22.5940625 11.52039063 22.563125 10.79078125 22.53125 10.0390625 C22.31050269 5.99202856 21.85079003 3.70158006 20 0 C25.61 0 31.22 0 37 0 C36.34 0.99 35.68 1.98 35 3 C34.81666847 5.50731199 34.7436964 7.90046861 34.76953125 10.40625 C34.76998947 11.12735962 34.77044769 11.84846924 34.7709198 12.59143066 C34.77393788 14.11451871 34.78181093 15.63760379 34.79418945 17.16064453 C34.81243208 19.49132226 34.81469914 21.8216021 34.81445312 24.15234375 C34.81936921 25.63281593 34.82519792 27.11328543 34.83203125 28.59375 C34.83314407 29.2906897 34.8342569 29.98762939 34.83540344 30.70568848 C34.86518903 33.74395975 35.03124524 36.09373573 36 39 C30.72 39 25.44 39 20 39 C20.66 38.01 21.32 37.02 22 36 C22.29991069 33.41114829 22.50865225 30.90850918 22.625 28.3125 C22.66367188 27.61060547 22.70234375 26.90871094 22.7421875 26.18554688 C22.8362334 24.45745345 22.9191968 22.72876325 23 21 C20.03 21 17.06 21 14 21 C14.11397544 23.43847451 14.24070974 25.87513174 14.375 28.3125 C14.4059375 29.00279297 14.436875 29.69308594 14.46875 30.40429688 C14.68124919 34.06990789 14.91933861 35.87900792 17 39 C11.39 39 5.78 39 0 39 C0.66 38.01 1.32 37.02 2 36 C2.1712914 33.45770403 2.23242934 31.02810519 2.1953125 28.48828125 C2.19106766 27.39594429 2.19106766 27.39594429 2.18673706 26.28153992 C2.17555257 23.95835863 2.15045166 21.63556453 2.125 19.3125 C2.11496794 17.7363337 2.10584248 16.16016135 2.09765625 14.58398438 C2.07561896 10.72250733 2.04110141 6.86131929 2 3 C1.34 2.67 0.68 2.34 0 2 C0 1.34 0 0.68 0 0 Z " fill="#6C5E62" transform="translate(209,225)"/>
<path d="M0 0 C5.61 0 11.22 0 17 0 C16.34 1.32 15.68 2.64 15 4 C14.75827293 7.50869414 14.75827293 7.50869414 14.875 11.25 C14.90207031 13.14492187 14.90207031 13.14492187 14.9296875 15.078125 C14.95289063 16.04234375 14.97609375 17.0065625 15 18 C19.55197487 12.27332194 20 7.17317605 20 0 C24.95 0 29.9 0 35 0 C32.90622203 4.18755594 30.442283 6.55456167 27 9.5625 C22.61717975 13.42146941 22.61717975 13.42146941 19 18 C20.65 17.34 22.3 16.68 24 16 C25.65296119 19.07956288 27.29610171 22.16426079 28.9375 25.25 C29.40607422 26.12269531 29.87464844 26.99539062 30.35742188 27.89453125 C30.80537109 28.73886719 31.25332031 29.58320313 31.71484375 30.453125 C32.12855225 31.22817383 32.54226074 32.00322266 32.96850586 32.80175781 C34 35 34 35 35 39 C29.72 39 24.44 39 19 39 C19.66 37.68 20.32 36.36 21 35 C19.92561646 31.8799861 19.92561646 31.8799861 18.125 28.75 C17.55007813 27.67234375 16.97515625 26.5946875 16.3828125 25.484375 C15.92648437 24.66453125 15.47015625 23.8446875 15 23 C14.94597726 25.10388569 14.90719744 27.20816714 14.875 29.3125 C14.85179687 30.48425781 14.82859375 31.65601563 14.8046875 32.86328125 C14.74679382 36.16393661 14.74679382 36.16393661 17 39 C11.39 39 5.78 39 0 39 C0.66 38.01 1.32 37.02 2 36 C2.1712914 33.45770403 2.23242934 31.02810519 2.1953125 28.48828125 C2.19106766 27.39594429 2.19106766 27.39594429 2.18673706 26.28153992 C2.17555257 23.95835863 2.15045166 21.63556453 2.125 19.3125 C2.11496794 17.7363337 2.10584248 16.16016135 2.09765625 14.58398438 C2.07561896 10.72250733 2.04110141 6.86131929 2 3 C1.34 2.67 0.68 2.34 0 2 C0 1.34 0 0.68 0 0 Z " fill="#6A5C61" transform="translate(321,225)"/>
<path d="M0 0 C10.56 0 21.12 0 32 0 C32 5.61 32 11.22 32 17 C28.7048637 13.7048637 26.54462269 10.22592393 24.109375 6.27734375 C21.67293961 3.25196059 21.67293961 3.25196059 15 2 C15 7.61 15 13.22 15 19 C20.12126781 16.20211302 20.12126781 16.20211302 24 12 C24 16.95 24 21.9 24 27 C22.27473958 25.47005208 20.54947917 23.94010417 18.82421875 22.41015625 C16.94758042 20.79918441 16.94758042 20.79918441 14 20 C14 25.94 14 31.88 14 38 C19.21894891 37.02144708 21.92525094 36.3165676 25.34375 32.12890625 C26.75935261 29.95164788 28.13610816 27.74853338 29.46875 25.51953125 C29.9740625 24.68808594 30.479375 23.85664063 31 23 C31.33 23 31.66 23 32 23 C32 28.28 32 33.56 32 39 C21.44 39 10.88 39 0 39 C0.66 38.01 1.32 37.02 2 36 C2.19527698 33.4930857 2.28018425 31.10011359 2.265625 28.59375 C2.26753845 27.87264038 2.2694519 27.15153076 2.27142334 26.40856934 C2.27278301 24.88549449 2.26910177 23.36240798 2.26074219 21.83935547 C2.25003914 19.50852417 2.26064438 17.17846358 2.2734375 14.84765625 C2.27211587 13.3671858 2.26955339 11.88671583 2.265625 10.40625 C2.27169769 9.36084045 2.27169769 9.36084045 2.27789307 8.29431152 C2.24247329 4.63804039 2.08630382 3.12945572 0 0 Z " fill="#695C60" transform="translate(249,225)"/>
<path d="M0 0 C11.22 0 22.44 0 34 0 C34 5.28 34 10.56 34 16 C30.81998025 12.81998025 29.31302716 11.09477882 27.375 7.3125 C25.83519172 4.01592649 25.83519172 4.01592649 23 2 C23.11826743 6.78735926 23.24251713 11.57451171 23.37231445 16.36157227 C23.41562749 17.99011004 23.45730518 19.61869216 23.49731445 21.24731445 C23.55510503 23.58818935 23.61877398 25.92884176 23.68359375 28.26953125 C23.70030624 28.99775589 23.71701874 29.72598053 23.73423767 30.47627258 C23.82467238 33.56166939 24.01723993 36.05171978 25 39 C19.72 39 14.44 39 9 39 C9.33 38.34 9.66 37.68 10 37 C10.15660883 34.37619687 10.2582908 31.77475148 10.31640625 29.1484375 C10.33718735 28.37440582 10.35796844 27.60037415 10.37937927 26.80288696 C10.44483448 24.32701608 10.50374087 21.85103798 10.5625 19.375 C10.60568907 17.69790552 10.64930348 16.02082193 10.69335938 14.34375 C10.80051171 10.22927692 10.90179045 6.11469586 11 2 C10.34 2 9.68 2 9 2 C8.73316406 2.71542969 8.46632812 3.43085938 8.19140625 4.16796875 C6.97685295 7.05502167 5.55385218 9.63181764 3.9375 12.3125 C3.41027344 13.19550781 2.88304687 14.07851562 2.33984375 14.98828125 C1.67662109 15.98408203 1.67662109 15.98408203 1 17 C0.67 17 0.34 17 0 17 C0 11.39 0 5.78 0 0 Z " fill="#67595E" transform="translate(137,225)"/>
<path d="M0 0 C2.4375 1.625 2.4375 1.625 4.4375 3.625 C4.11611144 6.98932276 2.79104137 8.61317404 0.375 10.875 C-0.17285156 11.39578125 -0.72070312 11.9165625 -1.28515625 12.453125 C-1.70667969 12.83984375 -2.12820313 13.2265625 -2.5625 13.625 C-5.5625 12.625 -5.5625 12.625 -6.66015625 10.84765625 C-6.97855469 10.13480469 -7.29695313 9.42195312 -7.625 8.6875 C-8.78701702 6.11612901 -9.53933978 4.64816022 -11.5625 2.625 C-14.60432893 2.37494614 -14.60432893 2.37494614 -17.5625 2.625 C-19.15718098 4.21968098 -18.84788976 5.85326282 -18.9375 8.0625 C-18.87680387 14.10610067 -16.91006849 18.64913053 -13.5625 23.625 C-9.28668918 27.7019359 -6.75543718 28.75515043 -0.9375 28.6875 C0.06539063 28.67847656 1.06828125 28.66945312 2.1015625 28.66015625 C3.25785156 28.64275391 3.25785156 28.64275391 4.4375 28.625 C2.80873065 30.35248264 1.16215145 31.99664888 -0.5625 33.625 C-1.07039063 34.12515625 -1.57828125 34.6253125 -2.1015625 35.140625 C-4.69654124 37.37894789 -6.50208053 38.590848 -9.98828125 38.703125 C-16.164713 37.76588194 -20.55698232 35.42049477 -24.5625 30.625 C-28.24884701 24.67927902 -28.40317541 18.49985669 -27.5625 11.625 C-25.68326837 5.96709832 -21.75452382 2.52925455 -16.7421875 -0.4609375 C-11.45498128 -2.67815301 -5.22075858 -2.01502963 0 0 Z " fill="#6C5F63" transform="translate(313.5625,226.375)"/>
<path d="M0 0 C2.4375 1.625 2.4375 1.625 4.4375 3.625 C4.11611144 6.98932276 2.79104137 8.61317404 0.375 10.875 C-0.17285156 11.39578125 -0.72070312 11.9165625 -1.28515625 12.453125 C-1.70667969 12.83984375 -2.12820312 13.2265625 -2.5625 13.625 C-5.5625 12.625 -5.5625 12.625 -6.66015625 10.84765625 C-6.97855469 10.13480469 -7.29695313 9.42195312 -7.625 8.6875 C-8.78701702 6.11612901 -9.53933978 4.64816022 -11.5625 2.625 C-14.60432893 2.37494614 -14.60432893 2.37494614 -17.5625 2.625 C-19.15718098 4.21968098 -18.84788976 5.85326282 -18.9375 8.0625 C-18.87680387 14.10610067 -16.91006849 18.64913053 -13.5625 23.625 C-9.28668918 27.7019359 -6.75543718 28.75515043 -0.9375 28.6875 C0.06539062 28.67847656 1.06828125 28.66945312 2.1015625 28.66015625 C3.25785156 28.64275391 3.25785156 28.64275391 4.4375 28.625 C2.80873065 30.35248264 1.16215145 31.99664888 -0.5625 33.625 C-1.07039063 34.12515625 -1.57828125 34.6253125 -2.1015625 35.140625 C-4.69654124 37.37894789 -6.50208053 38.590848 -9.98828125 38.703125 C-16.164713 37.76588194 -20.55698232 35.42049477 -24.5625 30.625 C-28.24884701 24.67927902 -28.40317541 18.49985669 -27.5625 11.625 C-25.68326837 5.96709832 -21.75452382 2.52925455 -16.7421875 -0.4609375 C-11.45498128 -2.67815301 -5.22075858 -2.01502963 0 0 Z " fill="#6C5F63" transform="translate(201.5625,226.375)"/>
<path d="M0 0 C4.29 0 8.58 0 13 0 C13 6.27 13 12.54 13 19 C15.31 18.34 17.62 17.68 20 17 C21.37466625 14.52363988 21.37466625 14.52363988 22 12 C22.66 11.67 23.32 11.34 24 11 C24 16.61 24 22.22 24 28 C22.68 26.35 21.36 24.7 20 23 C18.14958295 21.81743503 18.14958295 21.81743503 16.25 21.1875 C15.1775 20.795625 14.105 20.40375 13 20 C13.11397544 22.43847451 13.24070974 24.87513174 13.375 27.3125 C13.4059375 28.00279297 13.436875 28.69308594 13.46875 29.40429688 C13.68124919 33.06990789 13.91933861 34.87900792 16 38 C10.39 38 4.78 38 -1 38 C-0.34 37.01 0.32 36.02 1 35 C1.18329901 32.48115842 1.25630624 30.07591097 1.23046875 27.55859375 C1.23001053 26.83511246 1.22955231 26.11163116 1.2290802 25.3662262 C1.22606248 23.83894203 1.21819051 22.3116608 1.20581055 20.78442383 C1.18754104 18.44276062 1.18530102 16.10149271 1.18554688 13.75976562 C1.18063191 12.27603824 1.17480369 10.79231353 1.16796875 9.30859375 C1.16685593 8.60649277 1.1657431 7.90439178 1.16459656 7.18101501 C1.17840561 3.46595723 1.17840561 3.46595723 0 0 Z " fill="#6A5C60" transform="translate(83,226)"/>
<path d="M0 0 C5.61 0 11.22 0 17 0 C16.34 1.32 15.68 2.64 15 4 C14.69149808 7.43989929 14.69149808 7.43989929 14.734375 11.28515625 C14.73150482 12.33140419 14.73150482 12.33140419 14.72857666 13.39878845 C14.72721927 14.86880862 14.73088451 16.33884095 14.73925781 17.80883789 C14.74998036 20.05837882 14.73933966 22.30712416 14.7265625 24.55664062 C14.72788386 25.98698093 14.73044576 27.41732073 14.734375 28.84765625 C14.73663086 30.14711182 14.73888672 31.44656738 14.74121094 32.78540039 C14.75006973 36.15176037 14.75006973 36.15176037 17 39 C11.39 39 5.78 39 0 39 C0.66 38.01 1.32 37.02 2 36 C2.1712914 33.45770403 2.23242934 31.02810519 2.1953125 28.48828125 C2.19106766 27.39594429 2.19106766 27.39594429 2.18673706 26.28153992 C2.17555257 23.95835863 2.15045166 21.63556453 2.125 19.3125 C2.11496794 17.7363337 2.10584248 16.16016135 2.09765625 14.58398438 C2.07561896 10.72250733 2.04110141 6.86131929 2 3 C1.34 2.67 0.68 2.34 0 2 C0 1.34 0 0.68 0 0 Z " fill="#6A5C61" transform="translate(117,225)"/>
<path d="M0 0 C10.56 0 21.12 0 32 0 C32 5.61 32 11.22 32 17 C30.02 15.35 28.04 13.7 26 12 C26 17.61 26 23.22 26 29 C25.67 29 25.34 29 25 29 C24.67 23.72 24.34 18.44 24 13 C23.01 14.65 22.02 16.3 21 18 C18 20 18 20 14 20 C14 13.73 14 7.46 14 1 C9.38 1 4.76 1 0 1 C0 0.67 0 0.34 0 0 Z " fill="#E4DED2" transform="translate(82,225)"/>
<path d="M0 0 C11.22 0 22.44 0 34 0 C34 5.28 34 10.56 34 16 C30.81998025 12.81998025 29.31302716 11.09477882 27.375 7.3125 C25.83519172 4.01592649 25.83519172 4.01592649 23 2 C23 13.22 23 24.44 23 36 C22.67 36 22.34 36 22 36 C22 24.45 22 12.9 22 1 C18.7 1 15.4 1 12 1 C12 12.55 12 24.1 12 36 C11.67 36 11.34 36 11 36 C11 24.78 11 13.56 11 2 C10.34 2 9.68 2 9 2 C8.73316406 2.71542969 8.46632812 3.43085938 8.19140625 4.16796875 C6.97685295 7.05502167 5.55385218 9.63181764 3.9375 12.3125 C3.41027344 13.19550781 2.88304687 14.07851562 2.33984375 14.98828125 C1.67662109 15.98408203 1.67662109 15.98408203 1 17 C0.67 17 0.34 17 0 17 C0 11.39 0 5.78 0 0 Z " fill="#A79D99" transform="translate(137,225)"/>
<path d="M0 0 C3.875 1.875 3.875 1.875 5 3 C5.07319621 5.69654854 5.09242537 8.36691458 5.0625 11.0625 C5.05798828 11.82111328 5.05347656 12.57972656 5.04882812 13.36132812 C5.0370068 15.24091871 5.01907078 17.12046899 5 19 C2.03 19 -0.94 19 -4 19 C-4.10792837 16.39472895 -4.18724878 13.79391689 -4.25 11.1875 C-4.30027344 10.08051758 -4.30027344 10.08051758 -4.3515625 8.95117188 C-4.390625 6.79296875 -4.390625 6.79296875 -4 3 C-1.984375 0.98828125 -1.984375 0.98828125 0 0 Z " fill="#F1ECDE" transform="translate(227,226)"/>
<path d="M0 0 C10.56 0 21.12 0 32 0 C32 5.61 32 11.22 32 17 C28.7048637 13.7048637 26.54462269 10.22592393 24.109375 6.27734375 C21.67293961 3.25196059 21.67293961 3.25196059 15 2 C15 7.61 15 13.22 15 19 C14.67 19 14.34 19 14 19 C14 13.06 14 7.12 14 1 C9.38 1 4.76 1 0 1 C0 0.67 0 0.34 0 0 Z " fill="#8C8080" transform="translate(249,225)"/>
<path d="M0 0 C4.95 0 9.9 0 15 0 C12.93733341 4.12533318 10.56823738 6.46555795 7.1875 9.4375 C6.13831021 10.37256284 5.09012375 11.30875276 4.04296875 12.24609375 C3.53556152 12.69968262 3.0281543 13.15327148 2.50537109 13.62060547 C0.26210509 15.67614438 -1.86854123 17.82914273 -4 20 C-4 16.79478745 -3.57171757 16.0272734 -2 13.375 C0.43559786 8.76108574 0.32202532 5.15240512 0 0 Z " fill="#74676A" transform="translate(341,225)"/>
<path d="M0 0 C2.50319571 3.75479357 2.13370058 5.40185594 1.55078125 9.70703125 C0.71514206 13.18589796 -0.7285274 15.24669988 -3 18 C-3.66 18.33 -4.32 18.66 -5 19 C-5.13536629 16.58145554 -5.23420279 14.17050217 -5.3125 11.75 C-5.35439453 11.06808594 -5.39628906 10.38617188 -5.43945312 9.68359375 C-5.48828125 7.671875 -5.48828125 7.671875 -5 4 C-2.48046875 1.515625 -2.48046875 1.515625 0 0 Z " fill="#F3EDDF" transform="translate(340,225)"/>
<path d="M0 0 C4.29 0 8.58 0 13 0 C13 4.62 13 9.24 13 14 C9.88356061 10.88356061 7.70821091 8.27022534 5.34375 4.68359375 C3.76737178 2.56409681 3.76737178 2.56409681 0 0 Z " fill="#6A5C60" transform="translate(100,226)"/>
<path d="M0 0 C3.3 0 6.6 0 10 0 C10 4.95 10 9.9 10 15 C6.60254 11.60254 4.90942001 9.3725291 2.75 5.25 C2.22921875 4.26515625 1.7084375 3.2803125 1.171875 2.265625 C0.78515625 1.51796875 0.3984375 0.7703125 0 0 Z " fill="#706266" transform="translate(161,226)"/>
<path d="M0 0 C2.97 0 5.94 0 9 0 C8.06915029 1.77433812 7.13005387 3.54435149 6.1875 5.3125 C5.66542969 6.29863281 5.14335937 7.28476563 4.60546875 8.30078125 C3 11 3 11 0 14 C0 9.38 0 4.76 0 0 Z " fill="#6B5D62" transform="translate(138,226)"/>
<path d="M0 0 C0.33 0 0.66 0 1 0 C1 4.95 1 9.9 1 15 C-1.31 13.02 -3.62 11.04 -6 9 C-4.16460671 5.8536115 -2.30386756 2.82747382 0 0 Z " fill="#706266" transform="translate(272,237)"/>
</svg>
