<?xml version="1.0" encoding="UTF-8"?>
<svg version="1.1" xmlns="http://www.w3.org/2000/svg" width="180" height="180">
<path d="M0 0 C59.4 0 118.8 0 180 0 C180 59.4 180 118.8 180 180 C120.6 180 61.2 180 0 180 C0 120.6 0 61.2 0 0 Z " fill="#FCFCFC" transform="translate(0,0)"/>
<path d="M0 0 C3.375 1 3.375 1 6.375 5 C6.375 10.94 6.375 16.88 6.375 23 C41.025 23 75.675 23 111.375 23 C111.375 16.73 111.375 10.46 111.375 4 C116.375 0 116.375 0 120 0 C123.80165129 1.1264152 124.47181582 1.64515687 126.375 5 C127.00595863 9.45559727 126.83837635 13.94207308 126.8125 18.4375 C126.83248047 19.66533203 126.85246094 20.89316406 126.87304688 22.15820312 C126.87208008 23.93420898 126.87208008 23.93420898 126.87109375 25.74609375 C126.87294678 26.82560303 126.8747998 27.9051123 126.87670898 29.01733398 C126.25969528 32.68548798 124.93148595 34.34873003 122.375 37 C119.89648998 38.23925501 118.23408207 38.13684364 115.46061707 38.15390015 C114.42173843 38.16250061 113.3828598 38.17110107 112.3125 38.17996216 C110.5958313 38.18635208 110.5958313 38.18635208 108.84448242 38.19287109 C107.64277908 38.20104858 106.44107574 38.20922607 105.20295715 38.21765137 C101.2121311 38.24253662 97.22134297 38.25917879 93.23046875 38.2734375 C91.85676886 38.2787972 90.48306903 38.28417471 89.10936928 38.28956985 C83.39526243 38.3111984 77.68115841 38.32993521 71.96702099 38.34119225 C63.77722494 38.35743241 55.58790326 38.39061125 47.39828604 38.44759309 C41.64025336 38.48629084 35.88234756 38.50582468 30.12418824 38.51111281 C26.684848 38.51476659 23.24601369 38.52678904 19.80681419 38.55921555 C15.96896816 38.59488197 12.13171766 38.5909257 8.29370117 38.58349609 C6.58614151 38.6081041 6.58614151 38.6081041 4.84408569 38.63320923 C-2.84097151 38.57217067 -2.84097151 38.57217067 -6.82948303 35.66142273 C-9.07455496 32.33364273 -9.26968037 30.30657406 -9.2890625 26.30859375 C-9.29550781 25.03435547 -9.30195313 23.76011719 -9.30859375 22.44726562 C-9.29812012 21.78895752 -9.28764648 21.13064941 -9.27685547 20.45239258 C-9.25001148 18.43836151 -9.27665499 16.42987705 -9.30859375 14.41601562 C-9.30214844 13.14306641 -9.29570312 11.87011719 -9.2890625 10.55859375 C-9.28342285 9.39642334 -9.2777832 8.23425293 -9.27197266 7.03686523 C-8.625 4 -8.625 4 -6.31005859 1.59008789 C-3.625 0 -3.625 0 0 0 Z " fill="#323232" transform="translate(31.625,105)"/>
<path d="M0 0 C2.25964695 1.45263018 4.28374665 3.06025618 6.34375 4.78515625 C8.35544309 6.46255328 10.37333662 8.05466954 12.46875 9.62109375 C13.36001587 10.28939209 13.36001587 10.28939209 14.26928711 10.97119141 C15.4551784 11.85822841 16.64346186 12.74207715 17.83422852 13.62255859 C19.25935234 14.70175384 20.63486358 15.84585839 22 17 C22 17.66 22 18.32 22 19 C22.639375 19.28875 23.27875 19.5775 23.9375 19.875 C26 21 26 21 27 23 C27.38503376 26.54231061 27.41935959 28.36257342 25.4375 31.375 C21.84697519 33.76868321 20.27217813 33.82687319 16 33 C13.43408203 31.17675781 13.43408203 31.17675781 10.7578125 28.953125 C9.86465332 28.21739258 8.97149414 27.48166016 8.05126953 26.72363281 C7.37435059 26.15483398 6.69743164 25.58603516 6 25 C5.9906543 26.30670654 5.98130859 27.61341309 5.97167969 28.9597168 C5.93176162 33.81487934 5.86599725 38.66940944 5.79248047 43.52416992 C5.76428148 45.62402208 5.74306163 47.72398017 5.72900391 49.82397461 C5.70755986 52.84544059 5.66090133 55.86563434 5.609375 58.88671875 C5.60753204 60.29167854 5.60753204 60.29167854 5.60565186 61.72502136 C5.50991286 66.00024679 5.37716684 68.38912176 3.08911133 72.0949707 C1 74 1 74 -1.03515625 74.59375 C-6.52750944 74.33976835 -6.52750944 74.33976835 -8.72480774 72.75968933 C-10.37629932 70.48072936 -10.36309847 69.14524359 -10.34057617 66.3449707 C-10.34034958 65.40422195 -10.34012299 64.46347321 -10.33988953 63.49421692 C-10.32440567 62.48163315 -10.30892181 61.46904938 -10.29296875 60.42578125 C-10.28872391 59.38681198 -10.28447906 58.34784271 -10.28010559 57.27738953 C-10.26329849 53.95549724 -10.22564196 50.63420925 -10.1875 47.3125 C-10.17245582 45.06185771 -10.15876695 42.81120593 -10.14648438 40.56054688 C-10.11338836 35.04015803 -10.06316869 29.52012218 -10 24 C-10.78503906 24.6496875 -11.57007812 25.299375 -12.37890625 25.96875 C-13.439397 26.81338865 -14.50063519 27.65708944 -15.5625 28.5 C-16.07619141 28.92925781 -16.58988281 29.35851562 -17.11914062 29.80078125 C-21.15944244 32.96275659 -23.94226581 33.54694817 -29 33 C-31.90085398 31.35618275 -32.04170295 29.85925254 -33 26.625 C-33 23 -33 23 -30.92578125 20.64453125 C-25.9185935 16.1186753 -20.81614786 11.71990718 -15.64599609 7.38134766 C-14.26530224 6.22264611 -12.89157174 5.05565403 -11.51953125 3.88671875 C-7.70795243 0.79764423 -5.05614348 -1.34142582 0 0 Z " fill="#323232" transform="translate(93,38)"/>
<path d="M0 0 C0.70074844 3.153368 1 5.72724974 1 9 C0.01 9 -0.98 9 -2 9 C-2 9.66 -2 10.32 -2 11 C-1.34 11.33 -0.68 11.66 0 12 C-1.65 12.33 -3.3 12.66 -5 13 C-4.67 14.32 -4.34 15.64 -4 17 C-6.530472 16.66260373 -7.6818563 16.3938922 -9.3125 14.375 C-10.33907595 10.82864672 -9.99634196 8.54946823 -9 5 C-6.43568279 1.92896142 -4.13850899 0 0 0 Z " fill="#333333" transform="translate(70,54)"/>
<path d="M0 0 C6.4700995 0.4883094 6.4700995 0.4883094 8.7121582 2.65332031 C10.38465303 5.70090709 10.34202695 7.8300954 10.29296875 11.296875 C10.28330078 12.50214844 10.27363281 13.70742187 10.26367188 14.94921875 C10.23853516 16.20347656 10.21339844 17.45773438 10.1875 18.75 C10.17396484 20.01972656 10.16042969 21.28945312 10.14648438 22.59765625 C10.1111324 25.73219844 10.06178248 28.86588545 10 32 C9.01 32.495 9.01 32.495 8 33 C8 23.76 8 14.52 8 5 C6.68 5.33 5.36 5.66 4 6 C1.75 5.0625 1.75 5.0625 0 4 C0 2.68 0 1.36 0 0 Z " fill="#3C3C3C" transform="translate(148,105)"/>
<path d="M0 0 C1.22589844 0.01353516 1.22589844 0.01353516 2.4765625 0.02734375 C3.41628906 0.04474609 3.41628906 0.04474609 4.375 0.0625 C0.06730769 4.98557692 0.06730769 4.98557692 -3.4375 5.375 C-4.5203125 5.2203125 -4.5203125 5.2203125 -5.625 5.0625 C-5.955 3.7425 -6.285 2.4225 -6.625 1.0625 C-4.21954362 -0.14022819 -2.67503047 -0.03821472 0 0 Z " fill="#272727" transform="translate(71.625,65.9375)"/>
<path d="M0 0 C-1.32 0.33 -2.64 0.66 -4 1 C-3.34 2.32 -2.68 3.64 -2 5 C-2.969375 5.12375 -3.93875 5.2475 -4.9375 5.375 C-6.4534375 5.684375 -6.4534375 5.684375 -8 6 C-8.33 6.66 -8.66 7.32 -9 8 C-9.33 6.68 -9.66 5.36 -10 4 C-6.58908673 0.88145073 -4.68377325 -0.53528837 0 0 Z " fill="#3C3C3C" transform="translate(33,105)"/>
<path d="M0 0 C2.97 1.98 2.97 1.98 6 4 C5.67 5.32 5.34 6.64 5 8 C3.35 8.33 1.7 8.66 0 9 C0 6.03 0 3.06 0 0 Z " fill="#F5F5F5" transform="translate(98,62)"/>
<path d="M0 0 C0.66 0.33 1.32 0.66 2 1 C2.32523926 4.57763189 2.42956587 6.39542581 0.3125 9.375 C-2.38790237 11.27258004 -3.77060081 11.35882213 -7 11 C-4.66785852 9.79371992 -2.50357861 8.8345262 0 8 C-0.66 6.02 -1.32 4.04 -2 2 C-1.34 2 -0.68 2 0 2 C0 1.34 0 0.68 0 0 Z " fill="#222222" transform="translate(118,60)"/>
<path d="M0 0 C1.32 0 2.64 0 4 0 C4 0.66 4 1.32 4 2 C3.34 2 2.68 2 2 2 C2 2.99 2 3.98 2 5 C2.66 5.33 3.32 5.66 4 6 C3.01 6.495 3.01 6.495 2 7 C1.01 6.67 0.02 6.34 -1 6 C-1.33 6.66 -1.66 7.32 -2 8 C-1.125 1.125 -1.125 1.125 0 0 Z " fill="#404040" transform="translate(62,58)"/>
<path d="M0 0 C0.33 1.65 0.66 3.3 1 5 C0.67 4.34 0.34 3.68 0 3 C-1.98 3.99 -1.98 3.99 -4 5 C-4.66 4.34 -5.32 3.68 -6 3 C-3.375 0 -3.375 0 0 0 Z " fill="#393939" transform="translate(70,54)"/>
</svg>
